# xmcd CD database file
#
# Track frame offsets:
#	150
#	23602
#	46381
#	72438
#	89345
#	121817
#	142424
#	170589
#
# Disc length: 2597 seconds
#
# Revision: 0
# Processed by: cddbd v1.5.1PL2 Copyright (c) Steve Scherf et al.
# Submitted via: CDex 1.51
#
DISCID=6f0a2308
DTITLE=Karaboo - Karaboo
DYEAR=2005
DGENRE=Jazz
TTITLE0=No me estás viendo
TTITLE1=Hipermandibula
TTITLE2=Endemientras
TTITLE3=Ultimo trencito a Chipitin
TTITLE4=Corre Forest! Salta Willy!
TTITLE5=El Buda bueno
TTITLE6=Melgacho
TTITLE7=El cuarto
EXTD=YEAR: 2005
EXTT0=
EXTT1=
EXTT2=
EXTT3=
EXTT4=
EXTT5=
EXTT6=
EXTT7=
PLAYORDER=
